<svg width="40" height="40" viewBox="0 0 40 40" fill="none" xmlns="http://www.w3.org/2000/svg">
<path d="M13.8907 16.1658C14.1961 15.8603 14.1961 15.3656 13.8907 15.0611C13.5861 14.7556 13.0914 14.7556 12.7859 15.0611C12.4804 15.3656 12.4804 15.8603 12.7859 16.1658C13.0914 16.4704 13.5861 16.4704 13.8907 16.1658Z" fill="#343434"/>
<path d="M21.625 17.2705C22.5387 16.3568 22.5387 14.87 21.625 13.9563C20.7092 13.0405 19.226 13.0402 18.3102 13.9563C17.3941 14.8721 17.3941 16.3544 18.3102 17.2705C19.2239 18.1842 20.711 18.1845 21.625 17.2705ZM19.4149 15.0611C19.7204 14.7559 20.2148 14.7559 20.5203 15.0611C20.8245 15.3656 20.8245 15.8609 20.5203 16.1655C20.2154 16.47 19.7195 16.4704 19.4149 16.1655C19.1101 15.8609 19.1088 15.3671 19.4149 15.0611Z" fill="#343434"/>
<path d="M18.3102 22.7942C17.3941 23.7104 17.3941 25.1932 18.3102 26.1093C19.226 27.0252 20.7089 27.0255 21.625 26.1093C22.539 25.1953 22.539 23.7082 21.625 22.7942C20.7092 21.8787 19.226 21.8784 18.3102 22.7942ZM20.5203 25.0046C20.2148 25.3098 19.7201 25.3098 19.4149 25.0046C19.1101 24.6997 19.1088 24.2053 19.4149 23.8993C19.7204 23.5938 20.2148 23.5941 20.5203 23.8993C20.8248 24.2038 20.8248 24.6997 20.5203 25.0046Z" fill="#343434"/>
<path d="M13.677 21.2906C13.7616 21.7142 14.1736 21.9879 14.5962 21.9034L25.6444 19.6933C26.0674 19.6088 26.3418 19.1971 26.2572 18.7741C26.1727 18.3509 25.761 18.0768 25.3381 18.1613L14.2898 20.3714C13.8665 20.456 13.5922 20.8676 13.677 21.2906Z" fill="#343434"/>
<path d="M23.7505 4.41987C23.5433 4.41987 23.3447 4.50196 23.1982 4.64845L14.996 12.8507C14.6908 13.1558 14.6908 13.6505 14.996 13.9557C15.3012 14.2609 15.7959 14.2609 16.1007 13.9557L23.7505 6.30586L33.6937 16.2494L16.1547 33.7885L6.21125 23.8452L11.6815 18.375C11.9867 18.0701 11.9867 17.5754 11.6815 17.2702C11.3763 16.9653 10.8816 16.9653 10.5765 17.2702L4.55415 23.2929C4.24898 23.5977 4.24898 24.0924 4.55415 24.3976L15.6024 35.4459C15.9076 35.7511 16.4019 35.7511 16.7071 35.4459L35.3511 16.8018C35.6563 16.4966 35.6563 16.0019 35.3511 15.6967L24.3029 4.64845C24.1564 4.50196 23.9577 4.41987 23.7505 4.41987Z" fill="#343434"/>
<path d="M38.6659 0.229191L35.3127 3.58216C33.3562 2.1048 30.6545 2.08069 28.7145 3.52113L25.9679 0.69489C25.9652 0.692143 25.9627 0.689702 25.96 0.686955C25.0487 -0.224301 23.5668 -0.234066 22.6446 0.688176L0.686986 22.7405C-0.228843 23.6563 -0.229148 25.1395 0.686986 26.0556L3.78573 29.1541C3.09359 31.135 3.59286 33.3808 5.10622 34.8935C6.61927 36.4072 8.86505 36.9062 10.8459 36.2146L13.9447 39.3131C14.8605 40.2289 16.3443 40.2286 17.2583 39.3143L39.3129 17.3541C40.229 16.438 40.229 14.9558 39.3129 14.0399C39.3102 14.0372 39.3077 14.0347 39.305 14.032L36.479 11.286C37.9143 9.35914 37.9088 6.6562 36.4177 4.6872L39.7707 1.33423C40.0758 1.02906 40.0758 0.534367 39.7707 0.229191C39.4655 -0.0759851 38.9711 -0.0759851 38.6659 0.229191ZM34.8549 10.7813C34.7072 10.9293 34.6248 11.1301 34.626 11.3394C34.6276 11.5485 34.713 11.7484 34.8628 11.8939L38.2112 15.148C38.5143 15.4544 38.5109 15.9464 38.2091 16.2479L16.1547 38.208C15.8499 38.5129 15.354 38.5129 15.0494 38.208L11.5845 34.7434C11.4349 34.5935 11.2347 34.5145 11.0321 34.5145C10.9198 34.5145 10.8066 34.5386 10.7004 34.5884C9.19799 35.2933 7.3938 34.972 6.21125 33.7885C5.02779 32.6059 4.70644 30.802 5.41139 29.2997C5.55116 29.0015 5.48951 28.6481 5.25667 28.4153L1.79202 24.9506C1.48715 24.6457 1.48715 24.1501 1.79294 23.844L23.7508 1.79169C24.0548 1.48804 24.5461 1.48621 24.8519 1.78834L28.1057 5.13673C28.3974 5.43702 28.897 5.46632 29.2186 5.14497C30.5559 3.80707 32.65 3.66425 34.1927 4.70216L33.0468 5.84809C32.1755 5.43305 31.0994 5.58534 30.3792 6.30555C29.4655 7.21955 29.4655 8.70668 30.3792 9.62037C31.2951 10.5362 32.7782 10.5365 33.6943 9.62037C34.431 8.88368 34.5601 7.80305 34.1527 6.95191L35.2983 5.80628C36.3283 7.33094 36.2096 9.42689 34.8549 10.7813ZM32.5893 7.41029C32.8942 7.71516 32.8954 8.20954 32.5893 8.51564C32.2841 8.82081 31.7894 8.82081 31.4843 8.51564C31.1794 8.21076 31.1794 7.71485 31.484 7.41029C31.7888 7.10603 32.2847 7.10542 32.5893 7.41029Z" fill="#343434"/>
</svg>
