<svg width="47" height="41" viewBox="0 0 47 41" fill="none" xmlns="http://www.w3.org/2000/svg">
<path d="M27.9072 2.40964C27.9072 2.40964 20.8969 11.7254 20.4845 23.5542M16.3093 23.0843C16.6299 18.1743 17.8695 8.1418 22.6357 3.31683L27.701 1V2.48788L32.0825 1.68017C32.0825 1.68017 25.6279 12.9668 24.3669 22.0853M3.78351 28.5101V34.6524V40H11.859L19.871 34.6524H25.2828L42.9136 28.6389H46V26.5128L42.7867 24.494H30.737M34.4021 24.494V27.7831H24.6598M7.23522 27.648H5.4684L2.6798 28.253C2.6798 28.253 -1.66275 24.1224 3.61643 20.9515L2.31793 19.971L3.61643 18.3855L6.10701 20.576V23.3088H21.4124M7.49485 23.5542V24.494M8.8866 23.5542V24.494M10.2784 23.5542V24.494M11.6701 23.5542V24.494M13.0619 23.5542V24.494M13.9897 23.5542V24.494M15.3814 23.5542V24.494M16.7732 23.5542V24.494M18.1649 23.5542V24.494M35.3299 24.494V25.9036M37.1856 24.494V25.9036M39.0412 24.494V25.9036M11.2062 27.7831C11.2062 28.8212 10.3754 29.6627 9.35051 29.6627C8.32565 29.6627 7.49485 28.8212 7.49485 27.7831C7.49485 26.7451 8.32565 25.9036 9.35051 25.9036C10.3754 25.9036 11.2062 26.7451 11.2062 27.7831ZM15.3814 27.7831C15.3814 28.8212 14.5506 29.6627 13.5258 29.6627C12.5009 29.6627 11.6701 28.8212 11.6701 27.7831C11.6701 26.7451 12.5009 25.9036 13.5258 25.9036C14.5506 25.9036 15.3814 26.7451 15.3814 27.7831ZM20.0206 27.7831C20.0206 28.8212 19.1898 29.6627 18.165 29.6627C17.1401 29.6627 16.3093 28.8212 16.3093 27.7831C16.3093 26.7451 17.1401 25.9036 18.165 25.9036C19.1898 25.9036 20.0206 26.7451 20.0206 27.7831ZM24.1959 27.7831C24.1959 28.8212 23.3651 29.6627 22.3402 29.6627C21.3153 29.6627 20.4845 28.8212 20.4845 27.7831C20.4845 26.7451 21.3153 25.9036 22.3402 25.9036C23.3651 25.9036 24.1959 26.7451 24.1959 27.7831ZM21.4124 22.6145H24.1959V24.9639H21.4124V22.6145ZM24.6598 22.6145H27.4433V24.9639H24.6598V22.6145ZM27.9072 22.6145H30.6907V24.9639H27.9072V22.6145Z" stroke="#343434" stroke-width="1.5" stroke-miterlimit="10" stroke-linejoin="round"/>
</svg>
