<svg width="44" height="40" viewBox="0 0 44 40" fill="none" xmlns="http://www.w3.org/2000/svg">
<path d="M41.0621 5.24657C39.293 5.41705 37.9701 6.94556 38.0567 8.71915L38.1895 14.1571C36.7342 14.3016 35.4604 15.1958 34.8309 16.5145L32.8418 20.687C32.5326 21.3339 32.0813 21.9034 31.5222 22.3525L31.1088 22.6837C29.0064 24.36 27.8347 26.9409 27.958 29.6252L27.1453 29.2389C26.777 29.0633 26.3358 29.2198 26.1604 29.5877L23.9797 34.1625C23.8044 34.5308 23.9606 34.9712 24.3289 35.1464L34.3786 39.928C34.5553 40.0123 34.7584 40.0231 34.9431 39.9575C35.1278 39.8919 35.279 39.7561 35.363 39.5791L37.5441 35.0037C37.7194 34.6357 37.5632 34.1953 37.1949 34.0201L36.766 33.8161L36.6588 32.3849C36.6159 31.8259 36.7923 31.272 37.1505 30.8402L42.3546 24.5485C42.3651 24.5358 42.3752 24.5229 42.3849 24.5095C43.4578 23.0131 44.0234 21.2132 43.9993 19.3729C43.9985 19.338 43.9953 19.303 43.9899 19.2684L41.8636 5.86576C41.8023 5.48012 41.451 5.20873 41.0621 5.24657ZM34.3468 38.2777L25.6316 34.1307L27.177 30.8885L35.8922 35.0354L34.3468 38.2777ZM41.1995 23.6276L36.0117 29.8999C35.4096 30.625 35.1134 31.5556 35.1852 32.4948L35.2296 33.0848L29.5172 30.367C29.1113 27.8953 30.0734 25.3972 32.033 23.8352L32.4464 23.504C33.1795 22.9154 33.7707 22.1694 34.1762 21.3217L36.165 17.1492C36.6852 16.0622 37.863 15.4502 39.0527 15.6492L36.1455 21.7484C35.9727 22.116 36.1293 22.5539 36.4965 22.7287C36.8634 22.9032 37.3028 22.7489 37.4795 22.3831L40.7486 15.5248C40.9239 15.1565 40.7677 14.7161 40.399 14.5409C40.1649 14.4299 39.921 14.3409 39.6703 14.2745L39.5336 8.6741C39.5336 8.66761 39.5336 8.66112 39.5329 8.65499C39.495 7.9284 39.8868 7.24722 40.5336 6.91348L42.5224 19.4461C42.531 20.9443 42.0686 22.4069 41.1995 23.6276Z" fill="#343434"/>
<path d="M1.64538 24.5485L6.84947 30.8402C7.20769 31.272 7.38409 31.8259 7.34116 32.3849L7.23402 33.8161L6.8051 34.0201C6.43678 34.1953 6.28057 34.6357 6.4559 35.0037L8.63695 39.5791C8.72101 39.7561 8.87216 39.8919 9.05686 39.9575C9.24156 40.0231 9.44466 40.0123 9.62179 39.928L19.671 35.1464C20.0394 34.9712 20.1956 34.5308 20.0202 34.1625L17.8392 29.5874C17.6639 29.2194 17.223 29.063 16.8547 29.2385L16.0419 29.6249C16.165 26.9405 14.9936 24.3596 12.8912 22.6833L12.4778 22.3521C11.9183 21.903 11.4674 21.3339 11.1578 20.687L9.16869 16.5145C8.53919 15.1958 7.26541 14.3016 5.81016 14.1571L5.94328 8.71915C6.02986 6.94592 4.70701 5.41705 2.93792 5.24657C2.54904 5.20873 2.19767 5.48012 2.13635 5.86576L0.0101229 19.2684C0.00435098 19.303 0.00146503 19.338 0.000743545 19.3729C-0.0234263 21.2132 0.54222 23.0131 1.61507 24.5095C1.62481 24.5229 1.63491 24.5358 1.64538 24.5485ZM18.3684 34.1311L9.65317 38.2777L8.10774 35.0354L16.823 30.8885L18.3684 34.1311ZM3.46641 6.91312C4.11322 7.24686 4.50499 7.9284 4.46711 8.65463C4.46711 8.66112 4.46675 8.66761 4.46639 8.6741L4.32967 14.2745C4.07895 14.3405 3.83473 14.4295 3.60061 14.5409C3.23229 14.7161 3.07573 15.1568 3.25141 15.5248L6.52047 22.3835C6.69723 22.7493 7.13662 22.9035 7.5035 22.7287C7.87037 22.5543 8.0273 22.1164 7.8545 21.7488L4.94727 15.6492C6.137 15.4499 7.31519 16.0618 7.83502 17.1492L9.82416 21.3217C10.2296 22.1694 10.8205 22.9154 11.5536 23.504L11.967 23.8352C13.9265 25.3972 14.8886 27.8953 14.4828 30.367L8.77043 33.0848L8.8148 32.4948C8.88659 31.5556 8.59042 30.625 7.9887 29.8999L2.80048 23.6276C1.93181 22.4069 1.46897 20.9443 1.47799 19.4461L3.46641 6.91312Z" fill="#343434"/>
<path d="M30.8108 15.9046C31.1171 15.807 31.3256 15.5233 31.3274 15.2018V3.50285C31.3256 3.18172 31.1171 2.89808 30.8108 2.8004L22.2291 0.0356808C22.0812 -0.0118936 21.9221 -0.0118936 21.7742 0.0356808L13.1899 2.80004C12.8833 2.89772 12.6748 3.18136 12.6726 3.50285V15.2018C12.6744 15.5233 12.8829 15.8066 13.1892 15.9046L21.7709 18.669C21.8445 18.6924 21.9217 18.7043 21.9989 18.7043C22.0768 18.7043 22.1544 18.6924 22.2283 18.669L30.8108 15.9046ZM22.7388 16.9531V6.80387L29.8498 4.51561V14.6648L22.7388 16.9531ZM22 1.51373L28.1727 3.50285L22 5.49124L15.8273 3.50285L22 1.51373ZM14.1502 4.51597L21.2612 6.80423V16.9534L14.1502 14.6652V4.51597Z" fill="#343434"/>
</svg>
