<svg width="40" height="40" viewBox="0 0 40 40" fill="none" xmlns="http://www.w3.org/2000/svg">
<path d="M39.9089 0.274599C39.8004 0.103718 39.6106 0 39.4066 0H29.2029C28.9748 0 28.7669 0.129315 28.6681 0.332681L21.484 15.1161C20.9971 15.0594 20.5021 15.0294 20.0001 15.0294C19.498 15.0294 19.003 15.0594 18.5161 15.1161L11.332 0.332681C11.2332 0.129315 11.0252 0 10.7971 0H0.593428C0.389371 0 0.199636 0.103718 0.09108 0.274599C-0.0175549 0.445401 -0.0298189 0.65957 0.0586399 0.841487L9.59288 20.461C8.1978 22.4692 7.37999 24.8991 7.37999 27.5147C7.37999 34.3991 13.0413 40 20 40C26.9587 40 32.62 34.3991 32.62 27.5147C32.62 24.8991 31.8022 22.4692 30.4071 20.461L39.9414 0.841487C40.0298 0.65957 40.0176 0.445401 39.9089 0.274599ZM29.5759 1.17417H33.2982L25.868 16.464C24.8822 15.9496 23.8199 15.5606 22.7023 15.3185L29.5759 1.17417ZM17.2976 15.3185C16.0846 15.5814 14.9365 16.0171 13.8808 16.5987L6.38518 1.17417H10.424L17.2976 15.3185ZM1.5372 1.17417H5.06835L12.8665 17.2211C11.9509 17.8441 11.1223 18.5832 10.4025 19.4171L1.5372 1.17417ZM20 38.8258C13.6957 38.8258 8.56682 33.7517 8.56682 27.5147C8.56682 21.2777 13.6957 16.2035 20 16.2035C26.3043 16.2035 31.4332 21.2777 31.4332 27.5147C31.4332 33.7517 26.3043 38.8258 20 38.8258ZM29.5975 19.4171C28.8154 18.5112 27.905 17.7171 26.8942 17.0623L34.6152 1.17417H38.4628L29.5975 19.4171Z" fill="#343434"/>
<path d="M23.8274 29.119L25.8753 27.144C26.212 26.8193 26.3309 26.3427 26.1856 25.9003C26.0404 25.4578 25.661 25.1414 25.1956 25.0745L22.3654 24.6676L21.0996 22.1304C20.8916 21.7132 20.4701 21.4541 19.9999 21.4541C19.5298 21.4541 19.1083 21.7133 18.9002 22.1304L17.6345 24.6676L14.8043 25.0745C14.339 25.1414 13.9596 25.4578 13.8142 25.9003C13.6689 26.3427 13.7879 26.8193 14.1245 27.144L16.1725 29.119L15.689 31.9076C15.6095 32.3661 15.7965 32.8209 16.1769 33.0943C16.5573 33.3678 17.0522 33.4032 17.4685 33.1867L19.9998 31.8701L22.5313 33.1867C22.7123 33.2809 22.9082 33.3274 23.1031 33.3274C23.3564 33.3274 23.6079 33.2488 23.8229 33.0943C24.2033 32.8209 24.3902 32.3662 24.3107 31.9077L23.8274 29.119ZM22.6049 29.0132L23.141 32.1061C23.143 32.1174 23.1452 32.1301 23.1253 32.1443C23.1055 32.1587 23.0933 32.1525 23.0836 32.1473L20.2761 30.687C20.1897 30.6421 20.0948 30.6196 20 30.6196C19.9052 30.6196 19.8103 30.6421 19.7239 30.687L16.9164 32.1473C16.9066 32.1524 16.8945 32.1587 16.8747 32.1443C16.8548 32.1301 16.8569 32.1173 16.8589 32.1061L17.3951 29.0132C17.4281 28.8227 17.3643 28.6284 17.2244 28.4935L14.9531 26.3032C14.9449 26.2952 14.9355 26.2862 14.9431 26.2631C14.9507 26.2399 14.9643 26.238 14.9751 26.2364L18.114 25.7851C18.3073 25.7573 18.4744 25.6373 18.5608 25.464L19.9646 22.6499C19.9694 22.6402 19.9754 22.6281 20 22.6281C20.0246 22.6281 20.0306 22.6402 20.0354 22.6499L21.4392 25.464C21.5256 25.6372 21.6927 25.7573 21.886 25.7851L25.0249 26.2364C25.0357 26.238 25.0493 26.2399 25.0569 26.2631C25.0645 26.2862 25.0551 26.2953 25.0469 26.3032L22.7755 28.4935C22.6357 28.6285 22.5719 28.8228 22.6049 29.0132Z" fill="#343434"/>
<path d="M10.9248 27.9295C11.0356 27.8207 11.0989 27.6689 11.0989 27.5147C11.0989 27.3605 11.0356 27.2086 10.9248 27.0998C10.8141 26.9902 10.6613 26.9276 10.5055 26.9276C10.3488 26.9276 10.1961 26.9902 10.0853 27.0998C9.97536 27.2086 9.91206 27.3605 9.91206 27.5147C9.91206 27.6689 9.97536 27.8207 10.0853 27.9295C10.1961 28.0391 10.3488 28.1018 10.5055 28.1018C10.6613 28.1018 10.8141 28.0391 10.9248 27.9295Z" fill="#343434"/>
<path d="M29.0747 27.0998C28.9647 27.2086 28.9014 27.3605 28.9014 27.5147C28.9014 27.6689 28.9647 27.8207 29.0747 27.9295C29.1855 28.0391 29.3382 28.1018 29.4948 28.1018C29.6507 28.1018 29.8034 28.0391 29.9142 27.9295C30.025 27.8207 30.0883 27.6689 30.0883 27.5147C30.0883 27.3605 30.025 27.2086 29.9142 27.0998C29.8042 26.9902 29.6507 26.9276 29.4948 26.9276C29.3382 26.9276 29.1855 26.9902 29.0747 27.0998Z" fill="#343434"/>
<path d="M20.0002 36.3209C19.8435 36.3209 19.6908 36.3836 19.58 36.4932C19.47 36.602 19.4067 36.7538 19.4067 36.908C19.4067 37.0622 19.47 37.2141 19.58 37.3229C19.6908 37.4325 19.8435 37.4951 20.0002 37.4951C20.156 37.4951 20.3087 37.4325 20.4195 37.3229C20.5303 37.2141 20.5936 37.0622 20.5936 36.908C20.5936 36.7538 20.5303 36.602 20.4195 36.4932C20.3087 36.3836 20.156 36.3209 20.0002 36.3209Z" fill="#343434"/>
<path d="M20.0002 18.7084C20.156 18.7084 20.3087 18.6458 20.4195 18.5362C20.5303 18.4274 20.5936 18.2763 20.5936 18.1213C20.5936 17.9671 20.5303 17.8153 20.4195 17.7065C20.3095 17.5969 20.156 17.5342 20.0002 17.5342C19.8435 17.5342 19.6908 17.5969 19.58 17.7065C19.47 17.8153 19.4067 17.9671 19.4067 18.1213C19.4067 18.2755 19.47 18.4274 19.58 18.5362C19.6908 18.6458 19.8435 18.7084 20.0002 18.7084Z" fill="#343434"/>
<path d="M13.2866 21.4599C13.4425 21.4599 13.5952 21.3973 13.706 21.2877C13.816 21.1781 13.8793 21.027 13.8793 20.8728C13.8793 20.7178 13.816 20.5667 13.706 20.4571C13.5952 20.3483 13.4425 20.2857 13.2866 20.2857C13.13 20.2857 12.9773 20.3483 12.8665 20.4571C12.7565 20.5667 12.6932 20.7178 12.6932 20.8728C12.6932 21.027 12.7565 21.1781 12.8665 21.2877C12.9773 21.3973 13.13 21.4599 13.2866 21.4599Z" fill="#343434"/>
<path d="M26.7137 33.5695C26.5578 33.5695 26.4043 33.6321 26.2943 33.7417C26.1836 33.8513 26.1203 34.0023 26.1203 34.1566C26.1203 34.3115 26.1836 34.4626 26.2943 34.5722C26.4043 34.681 26.5578 34.7436 26.7137 34.7436C26.8696 34.7436 27.0231 34.681 27.133 34.5722C27.2438 34.4626 27.3071 34.3115 27.3071 34.1566C27.3071 34.0023 27.2438 33.8513 27.133 33.7417C27.0231 33.6321 26.8696 33.5695 26.7137 33.5695Z" fill="#343434"/>
<path d="M13.2858 33.5695C13.13 33.5695 12.9773 33.6321 12.8665 33.7417C12.7565 33.8505 12.6932 34.0023 12.6932 34.1566C12.6932 34.3115 12.7565 34.4626 12.8665 34.5722C12.9773 34.681 13.13 34.7436 13.2858 34.7436C13.4425 34.7436 13.5952 34.681 13.706 34.5722C13.816 34.4626 13.88 34.3115 13.88 34.1566C13.88 34.0023 13.816 33.8513 13.706 33.7417C13.5952 33.6321 13.4425 33.5695 13.2858 33.5695Z" fill="#343434"/>
<path d="M26.7137 21.4599C26.8696 21.4599 27.0231 21.3973 27.133 21.2877C27.2438 21.1781 27.3071 21.027 27.3071 20.8728C27.3071 20.7178 27.2438 20.5667 27.133 20.4571C27.0231 20.3483 26.8703 20.2857 26.7137 20.2857C26.557 20.2857 26.4043 20.3483 26.2943 20.4571C26.1836 20.5667 26.1203 20.7178 26.1203 20.8728C26.1203 21.027 26.1836 21.1781 26.2943 21.2877C26.4043 21.3973 26.5578 21.4599 26.7137 21.4599Z" fill="#343434"/>
<path d="M11.8213 31.1092C11.8213 30.955 11.758 30.8031 11.6472 30.6943C11.5372 30.5847 11.3845 30.5221 11.2279 30.5221C11.072 30.5221 10.9193 30.5847 10.8085 30.6943C10.6977 30.8039 10.6344 30.955 10.6344 31.1092C10.6344 31.2642 10.6977 31.4153 10.8085 31.5241C10.9193 31.6337 11.072 31.6963 11.2279 31.6963C11.3845 31.6963 11.5372 31.6337 11.6472 31.5241C11.758 31.4153 11.8213 31.2642 11.8213 31.1092Z" fill="#343434"/>
<path d="M28.1782 23.9202C28.1782 24.0744 28.2415 24.2254 28.3523 24.335C28.4631 24.4446 28.6158 24.5072 28.7717 24.5072C28.9283 24.5072 29.081 24.4446 29.1918 24.335C29.3018 24.2254 29.3651 24.0744 29.3651 23.9202C29.3651 23.7652 29.3018 23.6141 29.1918 23.5045C29.081 23.3957 28.9283 23.3331 28.7717 23.3331C28.6158 23.3331 28.4631 23.3957 28.3523 23.5045C28.2415 23.6141 28.1782 23.7652 28.1782 23.9202Z" fill="#343434"/>
<path d="M23.6335 35.6063C23.4768 35.6063 23.3241 35.6689 23.2141 35.7777C23.1033 35.8873 23.04 36.0384 23.04 36.1933C23.04 36.3476 23.1033 36.4986 23.2141 36.6082C23.3241 36.717 23.4768 36.7804 23.6335 36.7804C23.7893 36.7804 23.9428 36.717 24.0528 36.6082C24.1636 36.4986 24.2269 36.3476 24.2269 36.1933C24.2269 36.0384 24.1636 35.8873 24.0528 35.7777C23.9428 35.6689 23.7893 35.6063 23.6335 35.6063Z" fill="#343434"/>
<path d="M16.3669 19.4231C16.5227 19.4231 16.6754 19.3605 16.7862 19.2517C16.8962 19.1421 16.9603 18.991 16.9603 18.836C16.9603 18.6818 16.8962 18.5307 16.7862 18.4211C16.6754 18.3115 16.5227 18.2489 16.3669 18.2489C16.2102 18.2489 16.0575 18.3115 15.9467 18.4211C15.8367 18.5307 15.7734 18.6818 15.7734 18.836C15.7734 18.991 15.8367 19.1421 15.9467 19.2517C16.0575 19.3605 16.2102 19.4231 16.3669 19.4231Z" fill="#343434"/>
<path d="M11.2279 24.5072C11.3845 24.5072 11.5372 24.4446 11.648 24.335C11.758 24.2254 11.8213 24.0744 11.8213 23.9202C11.8213 23.7652 11.758 23.6141 11.648 23.5045C11.5372 23.3957 11.3845 23.3331 11.2279 23.3331C11.072 23.3331 10.9193 23.3957 10.8085 23.5045C10.6977 23.6141 10.6344 23.7652 10.6344 23.9202C10.6344 24.0744 10.6977 24.2254 10.8085 24.335C10.9185 24.4446 11.072 24.5072 11.2279 24.5072Z" fill="#343434"/>
<path d="M28.7717 30.5221C28.6158 30.5221 28.4631 30.5847 28.3523 30.6943C28.2415 30.8039 28.1782 30.955 28.1782 31.1092C28.1782 31.2642 28.2415 31.4153 28.3523 31.5241C28.4631 31.6337 28.6158 31.6963 28.7717 31.6963C28.9283 31.6963 29.081 31.6337 29.1918 31.5241C29.3018 31.4153 29.3651 31.2642 29.3651 31.1092C29.3651 30.955 29.3018 30.8039 29.1918 30.6943C29.081 30.5847 28.9283 30.5221 28.7717 30.5221Z" fill="#343434"/>
<path d="M16.3661 35.6063C16.2102 35.6063 16.0575 35.6689 15.9467 35.7777C15.8367 35.8873 15.7734 36.0384 15.7734 36.1933C15.7734 36.3476 15.8367 36.4986 15.9467 36.6082C16.0575 36.717 16.2102 36.7804 16.3661 36.7804C16.5227 36.7804 16.6754 36.717 16.7862 36.6082C16.897 36.4986 16.9603 36.3476 16.9603 36.1933C16.9603 36.0384 16.897 35.8873 16.7862 35.7777C16.6754 35.6689 16.5227 35.6063 16.3661 35.6063Z" fill="#343434"/>
<path d="M23.6335 19.4231C23.7901 19.4231 23.9428 19.3605 24.0528 19.2517C24.1636 19.1421 24.2269 18.991 24.2269 18.836C24.2269 18.6818 24.1636 18.5307 24.0528 18.4211C23.9428 18.3115 23.7901 18.2489 23.6335 18.2489C23.4768 18.2489 23.3241 18.3115 23.2141 18.4211C23.1033 18.5307 23.04 18.6818 23.04 18.836C23.04 18.991 23.1033 19.1421 23.2141 19.2517C23.3241 19.3605 23.4768 19.4231 23.6335 19.4231Z" fill="#343434"/>
<path d="M11.1155 29.8027C11.2263 29.6932 11.2896 29.5421 11.2896 29.3871C11.2896 29.2329 11.2263 29.0818 11.1155 28.9722C11.0047 28.8634 10.852 28.8 10.6962 28.8C10.5395 28.8 10.3868 28.8634 10.276 28.9722C10.166 29.0818 10.1027 29.2329 10.1027 29.3871C10.1027 29.5421 10.166 29.6932 10.276 29.8027C10.3868 29.9115 10.5395 29.9742 10.6962 29.9742C10.852 29.9742 11.0055 29.9115 11.1155 29.8027Z" fill="#343434"/>
<path d="M28.884 25.2266C28.774 25.3362 28.7107 25.4873 28.7107 25.6423C28.7107 25.7965 28.774 25.9476 28.884 26.0571C28.9948 26.1659 29.1483 26.2294 29.3042 26.2294C29.46 26.2294 29.6135 26.1659 29.7235 26.0571C29.8343 25.9476 29.8976 25.7965 29.8976 25.6423C29.8976 25.4873 29.8343 25.3362 29.7235 25.2266C29.6135 25.1178 29.46 25.0544 29.3042 25.0544C29.1483 25.0544 28.9948 25.1178 28.884 25.2266Z" fill="#343434"/>
<path d="M21.8928 36.1323C21.7369 36.1323 21.5834 36.1949 21.4734 36.3045C21.3626 36.4133 21.2993 36.5644 21.2993 36.7194C21.2993 36.8744 21.3626 37.0254 21.4734 37.1342C21.5842 37.2438 21.7369 37.3065 21.8928 37.3065C22.0486 37.3065 22.2021 37.2438 22.3129 37.1342C22.4229 37.0254 22.4862 36.8736 22.4862 36.7194C22.4862 36.5652 22.4229 36.4133 22.3129 36.3045C22.2021 36.1949 22.0494 36.1323 21.8928 36.1323Z" fill="#343434"/>
<path d="M18.1068 18.8971C18.2634 18.8971 18.4161 18.8344 18.5269 18.7249C18.6369 18.616 18.7002 18.4642 18.7002 18.31C18.7002 18.1558 18.6369 18.0039 18.5269 17.8951C18.4161 17.7855 18.2634 17.7229 18.1068 17.7229C17.9509 17.7229 17.7982 17.7855 17.6874 17.8951C17.5766 18.0039 17.5133 18.1558 17.5133 18.31C17.5133 18.4642 17.5766 18.616 17.6874 18.7249C17.7982 18.8344 17.9509 18.8971 18.1068 18.8971Z" fill="#343434"/>
<path d="M12.0824 22.9174C12.239 22.9174 12.3918 22.8548 12.5025 22.7452C12.6125 22.6356 12.6758 22.4845 12.6758 22.3303C12.6758 22.1753 12.6125 22.0243 12.5025 21.9147C12.3918 21.8059 12.239 21.7432 12.0824 21.7432C11.9265 21.7432 11.773 21.8059 11.663 21.9147C11.5523 22.0243 11.489 22.1753 11.489 22.3303C11.489 22.4845 11.5523 22.6356 11.663 22.7452C11.773 22.8548 11.9265 22.9174 12.0824 22.9174Z" fill="#343434"/>
<path d="M27.9171 32.1119C27.7613 32.1119 27.6086 32.1746 27.4978 32.2841C27.387 32.3937 27.3237 32.5448 27.3237 32.699C27.3237 32.854 27.387 33.0051 27.4978 33.1147C27.6086 33.2235 27.7613 33.2861 27.9171 33.2861C28.0738 33.2861 28.2265 33.2235 28.3373 33.1147C28.4473 33.0051 28.5113 32.854 28.5113 32.699C28.5113 32.5448 28.4473 32.3937 28.3373 32.2841C28.2265 32.1746 28.0738 32.1119 27.9171 32.1119Z" fill="#343434"/>
<path d="M14.7599 34.7609C14.6032 34.7609 14.4505 34.8235 14.3397 34.9323C14.2298 35.0419 14.1665 35.193 14.1665 35.3479C14.1665 35.5022 14.2298 35.6532 14.3397 35.7628C14.4505 35.8724 14.6032 35.935 14.7599 35.935C14.9158 35.935 15.0685 35.8724 15.1792 35.7628C15.29 35.6532 15.3533 35.5022 15.3533 35.3479C15.3533 35.1937 15.29 35.0419 15.1792 34.9323C15.0685 34.8235 14.9158 34.7609 14.7599 34.7609Z" fill="#343434"/>
<path d="M25.2404 20.2685C25.3971 20.2685 25.5498 20.2059 25.6598 20.0971C25.7706 19.9875 25.8338 19.8364 25.8338 19.6814C25.8338 19.5272 25.7706 19.3753 25.6598 19.2665C25.5498 19.1569 25.3971 19.0943 25.2404 19.0943C25.0838 19.0943 24.9311 19.1569 24.8211 19.2665C24.7103 19.3753 24.647 19.5272 24.647 19.6814C24.647 19.8364 24.7103 19.9875 24.8211 20.0971C24.9311 20.2059 25.0838 20.2685 25.2404 20.2685Z" fill="#343434"/>
<path d="M12.5484 32.3522C12.4376 32.2427 12.2849 32.18 12.1283 32.18C11.9724 32.18 11.8189 32.2427 11.7089 32.3522C11.5982 32.4618 11.5349 32.6129 11.5349 32.7671C11.5349 32.9221 11.5982 33.0732 11.7089 33.1828C11.8197 33.2916 11.9724 33.3542 12.1283 33.3542C12.2849 33.3542 12.4376 33.2916 12.5484 33.1828C12.6584 33.0732 12.7217 32.9221 12.7217 32.7671C12.7217 32.6129 12.6584 32.4618 12.5484 32.3522Z" fill="#343434"/>
<path d="M27.4519 21.8466C27.3411 21.9562 27.2778 22.1072 27.2778 22.2622C27.2778 22.4164 27.3411 22.5683 27.4519 22.6771C27.5627 22.7867 27.7154 22.8493 27.8712 22.8493C28.0279 22.8493 28.1806 22.7867 28.2906 22.6771C28.4014 22.5675 28.4647 22.4164 28.4647 22.2622C28.4647 22.1072 28.4014 21.9562 28.2906 21.8466C28.1806 21.7378 28.0279 21.6751 27.8712 21.6751C27.7154 21.6751 27.5627 21.7378 27.4519 21.8466Z" fill="#343434"/>
<path d="M25.3093 34.7155C25.1534 34.7155 24.9999 34.7781 24.8899 34.8869C24.7791 34.9965 24.7158 35.1476 24.7158 35.3018C24.7158 35.4568 24.7791 35.6078 24.8899 35.7174C24.9999 35.8262 25.1534 35.8888 25.3093 35.8888C25.4659 35.8888 25.6186 35.8262 25.7286 35.7174C25.8394 35.6078 25.9027 35.4568 25.9027 35.3018C25.9027 35.1476 25.8394 34.9965 25.7286 34.8869C25.6186 34.7781 25.4651 34.7155 25.3093 34.7155Z" fill="#343434"/>
<path d="M14.6903 20.3147C14.8469 20.3147 14.9996 20.2513 15.1104 20.1425C15.2204 20.0329 15.2845 19.8818 15.2845 19.7276C15.2845 19.5726 15.2204 19.4215 15.1104 19.3119C14.9996 19.2031 14.8469 19.1405 14.6903 19.1405C14.5344 19.1405 14.3817 19.2031 14.2709 19.3119C14.1609 19.4215 14.0976 19.5726 14.0976 19.7276C14.0976 19.8818 14.1609 20.0329 14.2709 20.1425C14.3817 20.2513 14.5344 20.3147 14.6903 20.3147Z" fill="#343434"/>
<path d="M10.6795 26.3092C10.8362 26.3092 10.9889 26.2466 11.0997 26.1378C11.2097 26.0282 11.273 25.8771 11.273 25.7221C11.273 25.5679 11.2097 25.4168 11.0997 25.3072C10.9889 25.1977 10.8362 25.135 10.6795 25.135C10.5237 25.135 10.3702 25.1977 10.2602 25.3072C10.1494 25.416 10.0861 25.5679 10.0861 25.7221C10.0861 25.8771 10.1494 26.0282 10.2602 26.1378C10.371 26.2466 10.5237 26.3092 10.6795 26.3092Z" fill="#343434"/>
<path d="M29.32 28.7202C29.1641 28.7202 29.0114 28.7828 28.9006 28.8916C28.7899 29.0012 28.7266 29.1523 28.7266 29.3072C28.7266 29.4614 28.7899 29.6125 28.9006 29.7221C29.0114 29.8317 29.1641 29.8943 29.32 29.8943C29.4766 29.8943 29.6293 29.8317 29.7401 29.7221C29.8501 29.6125 29.9134 29.4614 29.9134 29.3072C29.9134 29.1523 29.8501 29.0012 29.7401 28.8916C29.6293 28.7828 29.4766 28.7202 29.32 28.7202Z" fill="#343434"/>
<path d="M18.1883 36.1487C18.0324 36.1487 17.8789 36.2113 17.7689 36.3202C17.6581 36.4297 17.5948 36.5808 17.5948 36.735C17.5948 36.89 17.6581 37.0411 17.7689 37.1507C17.8789 37.2603 18.0324 37.3229 18.1883 37.3229C18.3449 37.3229 18.4976 37.2603 18.6076 37.1507C18.7184 37.0411 18.7817 36.89 18.7817 36.735C18.7817 36.5808 18.7184 36.4297 18.6076 36.3202C18.4976 36.2113 18.3449 36.1487 18.1883 36.1487Z" fill="#343434"/>
<path d="M21.8121 18.8806C21.9679 18.8806 22.1206 18.818 22.2314 18.7092C22.3414 18.5996 22.4055 18.4485 22.4055 18.2935C22.4055 18.1393 22.3414 17.9883 22.2314 17.8787C22.1206 17.7699 21.9679 17.7072 21.8121 17.7072C21.6554 17.7072 21.5027 17.7699 21.3919 17.8787C21.2819 17.9883 21.2186 18.1393 21.2186 18.2935C21.2186 18.4485 21.2819 18.5996 21.3919 18.7092C21.5027 18.818 21.6554 18.8806 21.8121 18.8806Z" fill="#343434"/>
</svg>
