<svg width="40" height="40" viewBox="0 0 40 40" fill="none" xmlns="http://www.w3.org/2000/svg">
<path d="M39.4141 12.8906H34.7266C34.403 12.8906 34.1406 13.153 34.1406 13.4766C34.1406 13.8002 34.403 14.0625 34.7266 14.0625H38.8281V18.4673H34.7266C34.403 18.4673 34.1406 18.7297 34.1406 19.0533C34.1406 19.3769 34.403 19.6392 34.7266 19.6392H38.8281V24.7713H34.7266C34.403 24.7713 34.1406 25.0337 34.1406 25.3572C34.1406 25.6808 34.403 25.9432 34.7266 25.9432H38.8281V31.0753H32.3813C32.7499 30.5853 32.9688 29.9765 32.9688 29.3175V11.1328C32.9688 9.51734 31.6545 8.20312 30.0391 8.20312H6.38633C6.15273 7.05688 5.24781 6.15195 4.10156 5.91836V5.27344C4.10156 4.87789 3.97016 4.5125 3.74875 4.21844C4.31836 3.79047 4.6875 3.10945 4.6875 2.34375C4.6875 1.05141 3.63609 0 2.34375 0C1.05141 0 0 1.05141 0 2.34375C0 3.10945 0.369141 3.79047 0.93875 4.21844C0.717344 4.5125 0.585938 4.87789 0.585938 5.27344V39.4141C0.585938 39.7377 0.848281 40 1.17188 40H3.51562C3.83922 40 4.10156 39.7377 4.10156 39.4141V29.8426C5.24797 29.6062 6.15227 28.703 6.38617 27.5597H27.1094V29.3175C27.1094 30.9329 28.4236 32.2472 30.0391 32.2472H39.4141C39.7377 32.2472 40 31.9848 40 31.6612V13.4766C40 13.153 39.7377 12.8906 39.4141 12.8906ZM6.44531 26.3878V21.2557H30.0391C31.0084 21.2557 31.7969 22.0442 31.7969 23.0135V26.9754C31.3069 26.6067 30.6981 26.3878 30.0391 26.3878H6.44531ZM31.7969 20.6714C31.3069 20.3027 30.6981 20.0838 30.0391 20.0838H6.44531V14.9517H30.0391C31.0084 14.9517 31.7969 15.7402 31.7969 16.7095V20.6714ZM31.7969 11.1328V14.3674C31.3069 13.9987 30.6981 13.7798 30.0391 13.7798H6.44531V9.375H30.0391C31.0084 9.375 31.7969 10.1635 31.7969 11.1328ZM2.34375 1.17188C2.98992 1.17188 3.51562 1.69758 3.51562 2.34375C3.51562 2.98992 2.98992 3.51562 2.34375 3.51562C1.69758 3.51562 1.17188 2.98992 1.17188 2.34375C1.17188 1.69758 1.69758 1.17188 2.34375 1.17188ZM1.75781 38.8281V5.27344C1.75781 4.95031 2.02063 4.6875 2.34375 4.6875C2.66688 4.6875 2.92969 4.95031 2.92969 5.27344V38.8281H1.75781ZM4.10156 28.6283V7.13203C4.78352 7.37391 5.27344 8.02516 5.27344 8.78906V26.9737C5.27344 27.7349 4.78398 28.3843 4.10156 28.6283ZM28.2812 29.3175V27.5597H30.0391C31.0084 27.5597 31.7969 28.3482 31.7969 29.3175C31.7969 30.2868 31.0084 31.0753 30.0391 31.0753C29.0698 31.0753 28.2812 30.2868 28.2812 29.3175Z" fill="#343434"/>
</svg>
