<svg width="35" height="40" viewBox="0 0 35 40" fill="none" xmlns="http://www.w3.org/2000/svg">
<path d="M15.5631 6.84784C15.2591 6.72302 14.9093 6.86371 14.7818 7.16217L13.2839 10.6741L11.7861 7.16217C11.6589 6.8634 11.3091 6.72302 11.0051 6.84784C10.701 6.97296 10.5577 7.31598 10.6849 7.61475L12.7333 12.4176C12.8263 12.6355 13.0436 12.7774 13.2839 12.7774C13.5246 12.7774 13.7416 12.6355 13.8345 12.4176L15.8833 7.61475C16.0105 7.31598 15.8672 6.97296 15.5631 6.84784Z" fill="white"/>
<path d="M20.1687 12.7774C20.4986 12.7774 20.7656 12.515 20.7656 12.1915V10.376H22.5412C23.5447 10.376 24.3615 9.57428 24.3615 8.58917C24.3615 7.60406 23.5447 6.80237 22.5412 6.80237H20.1687C19.8392 6.80237 19.5718 7.06482 19.5718 7.38831V12.1915C19.5718 12.515 19.8392 12.7774 20.1687 12.7774ZM20.7656 7.97424H22.5412C22.8866 7.97424 23.1676 8.25012 23.1676 8.58917C23.1676 8.92822 22.8866 9.2038 22.5412 9.2038H20.7656V7.97424Z" fill="white"/>
<path d="M18.1314 12.1915V7.38831C18.1314 7.06482 17.8641 6.80237 17.5345 6.80237C17.205 6.80237 16.9376 7.06482 16.9376 7.38831V12.1915C16.9376 12.515 17.205 12.7774 17.5345 12.7774C17.8641 12.7774 18.1314 12.515 18.1314 12.1915Z" fill="white"/>
<path d="M16.271 15.0558L15.4434 17.5562C15.4254 17.6105 15.3738 17.6474 15.3156 17.6474H12.6373C11.3468 17.6474 10.8185 19.2661 11.8566 20.0061L14.0233 21.5515C14.0705 21.5854 14.0901 21.6446 14.0721 21.6992L13.2445 24.1995C12.8474 25.3998 14.2471 26.4005 15.2889 25.6573L17.4555 24.1122C17.5028 24.0784 17.5665 24.0784 17.6138 24.1122L19.7804 25.6573C20.8201 26.3989 22.2222 25.4004 21.8246 24.1995L20.9973 21.6992C20.9792 21.6446 20.9988 21.5854 21.0461 21.5515L23.2127 20.0061C24.253 19.2645 23.7198 17.6474 22.4317 17.6474H19.7537C19.6952 17.6474 19.6439 17.6105 19.6259 17.5562L18.7983 15.0558C18.4004 13.8556 16.669 13.8535 16.271 15.0558ZM17.5345 15.3268C17.6321 15.3268 17.6551 15.3955 17.6626 15.4181L18.4899 17.9181C18.6683 18.457 19.176 18.8193 19.7534 18.8193H22.4314C22.4557 18.8193 22.5294 18.8193 22.5595 18.9105C22.5897 19.0018 22.5303 19.0442 22.5107 19.0582L20.3441 20.6033C19.8768 20.9366 19.6828 21.5222 19.8616 22.0615L20.6889 24.5618C20.6963 24.5844 20.719 24.653 20.64 24.7092C20.5611 24.7656 20.5014 24.7232 20.4818 24.7092L18.3152 23.1641C17.8482 22.8308 17.2205 22.8308 16.7535 23.1641L14.5869 24.7092C14.5673 24.7232 14.5076 24.7656 14.4287 24.7092C14.3497 24.6527 14.3724 24.584 14.3799 24.5615L15.2075 22.0612C15.3859 21.5222 15.1919 20.9363 14.7249 20.6033L12.558 19.0582C12.5384 19.0442 12.479 19.0018 12.5092 18.9105C12.5394 18.8193 12.613 18.8193 12.6373 18.8193H15.3153C15.8927 18.8193 16.4004 18.457 16.5788 17.9181L17.4064 15.4181C17.4139 15.3955 17.4366 15.3268 17.5345 15.3268Z" fill="white"/>
<path d="M0 18.3771V39.4141C0 39.7379 0.267059 40 0.596919 40H8.73368C9.06354 40 9.3306 39.7379 9.3306 39.4141C9.3306 39.0903 9.06354 38.8281 8.73368 38.8281H2.49805L17.5 28.5703L32.5016 38.8281H11.5193C11.1898 38.8281 10.9224 39.0903 10.9224 39.4141C10.9224 39.7379 11.1898 40 11.5193 40H34.4031C34.7326 40 35 39.7379 35 39.4141V18.3771C35 18.1854 34.9042 18.006 34.7441 17.8964L30.5924 15.0574V11.3867C30.5924 11.0632 30.3251 10.8008 29.9955 10.8008C29.6657 10.8008 29.3986 11.0632 29.3986 11.3867V21.0849L28.2048 21.9012V5.63904C28.2048 5.31525 27.9374 5.0531 27.6078 5.0531C26.4149 5.0531 25.4446 4.10065 25.4446 2.92969C25.4446 2.6059 25.1776 2.34375 24.8477 2.34375H10.1523C9.82243 2.34375 9.55538 2.6059 9.55538 2.92969C9.55538 4.10034 8.58476 5.0531 7.39216 5.0531C7.0623 5.0531 6.79524 5.31525 6.79524 5.63904V11.5625C6.79524 11.8863 7.0623 12.1484 7.39216 12.1484C7.72171 12.1484 7.98908 11.8863 7.98908 11.5625V6.17279C9.36262 5.92957 10.4483 4.86389 10.6961 3.51562H24.3039C24.5514 4.86389 25.6374 5.92957 27.0109 6.17279V22.7176L19.0203 28.1815L17.8411 27.3752C17.6362 27.2351 17.3638 27.2351 17.1589 27.3752L15.9797 28.1815L7.98908 22.7176V14.2969C7.98908 13.9731 7.72171 13.7109 7.39216 13.7109C7.0623 13.7109 6.79524 13.9731 6.79524 14.2969V21.9012L5.60141 21.0849V1.9281C5.60141 1.51123 5.94681 1.17188 6.3718 1.17188H28.6282C29.0529 1.17188 29.3986 1.51123 29.3986 1.9281V8.57422C29.3986 8.89801 29.6657 9.16016 29.9955 9.16016C30.3254 9.16016 30.5924 8.89801 30.5924 8.57422V1.9281C30.5924 0.864868 29.7114 0 28.6282 0H6.3718C5.28864 0 4.40757 0.864868 4.40757 1.9281V15.0574L0.255867 17.8964C0.095445 18.006 0 18.1854 0 18.3771ZM4.40757 16.4856V20.2686C3.82246 19.8688 2.22539 18.7766 1.64122 18.3771L4.40757 16.4856ZM14.9351 28.8956L1.19384 38.2919V19.4995L14.9351 28.8956ZM33.8062 38.2919L20.0646 28.8956L33.8062 19.4995V38.2919ZM30.5924 16.4856L33.3585 18.3771C32.7746 18.7766 31.1772 19.8688 30.5924 20.2686V16.4856Z" fill="white"/>
</svg>
