<svg width="13" height="11" viewBox="0 0 13 11" fill="none" xmlns="http://www.w3.org/2000/svg">
<path fill-rule="evenodd" clip-rule="evenodd" d="M2.16667 6.05C2.46582 6.05 2.70833 6.29624 2.70833 6.6V10.45C2.70833 10.7538 2.46582 11 2.16667 11C1.86751 11 1.625 10.7538 1.625 10.45V6.6C1.625 6.29624 1.86751 6.05 2.16667 6.05Z" fill="white"/>
<path fill-rule="evenodd" clip-rule="evenodd" d="M2.16667 0C2.46582 0 2.70833 0.246243 2.70833 0.55V4.4C2.70833 4.70376 2.46582 4.95 2.16667 4.95C1.86751 4.95 1.625 4.70376 1.625 4.4V0.55C1.625 0.246243 1.86751 0 2.16667 0Z" fill="white"/>
<path fill-rule="evenodd" clip-rule="evenodd" d="M6.5 4.95C6.79915 4.95 7.04167 5.19624 7.04167 5.5V10.45C7.04167 10.7538 6.79915 11 6.5 11C6.20085 11 5.95833 10.7538 5.95833 10.45V5.5C5.95833 5.19624 6.20085 4.95 6.5 4.95Z" fill="white"/>
<path fill-rule="evenodd" clip-rule="evenodd" d="M6.5 0C6.79915 0 7.04167 0.246243 7.04167 0.55V3.3C7.04167 3.60376 6.79915 3.85 6.5 3.85C6.20085 3.85 5.95833 3.60376 5.95833 3.3V0.55C5.95833 0.246243 6.20085 0 6.5 0Z" fill="white"/>
<path fill-rule="evenodd" clip-rule="evenodd" d="M10.8333 7.15C11.1325 7.15 11.375 7.39624 11.375 7.7V10.45C11.375 10.7538 11.1325 11 10.8333 11C10.5342 11 10.2917 10.7538 10.2917 10.45V7.7C10.2917 7.39624 10.5342 7.15 10.8333 7.15Z" fill="white"/>
<path fill-rule="evenodd" clip-rule="evenodd" d="M10.8333 0C11.1325 0 11.375 0.246243 11.375 0.55V5.5C11.375 5.80376 11.1325 6.05 10.8333 6.05C10.5342 6.05 10.2917 5.80376 10.2917 5.5V0.55C10.2917 0.246243 10.5342 0 10.8333 0Z" fill="white"/>
<path fill-rule="evenodd" clip-rule="evenodd" d="M0 6.6C0 6.29624 0.242512 6.05 0.541667 6.05H3.79167C4.09082 6.05 4.33333 6.29624 4.33333 6.6C4.33333 6.90376 4.09082 7.15 3.79167 7.15H0.541667C0.242512 7.15 0 6.90376 0 6.6Z" fill="white"/>
<path fill-rule="evenodd" clip-rule="evenodd" d="M4.33333 3.3C4.33333 2.99624 4.57585 2.75 4.875 2.75H8.125C8.42415 2.75 8.66667 2.99624 8.66667 3.3C8.66667 3.60376 8.42415 3.85 8.125 3.85H4.875C4.57585 3.85 4.33333 3.60376 4.33333 3.3Z" fill="white"/>
<path fill-rule="evenodd" clip-rule="evenodd" d="M8.66667 7.7C8.66667 7.39624 8.90918 7.15 9.20833 7.15H12.4583C12.7575 7.15 13 7.39624 13 7.7C13 8.00376 12.7575 8.25 12.4583 8.25H9.20833C8.90918 8.25 8.66667 8.00376 8.66667 7.7Z" fill="white"/>
</svg>
