<svg width="18" height="18" viewBox="0 0 18 18" fill="none" xmlns="http://www.w3.org/2000/svg">
<path d="M17.8237 15.2242L14.2413 11.642L16.797 10.1659C16.9967 10.0505 17.113 9.83124 17.0963 9.60124C17.0798 9.37118 16.9333 9.17088 16.719 9.08548L5.32212 4.53971C5.09864 4.4505 4.84359 4.50304 4.67345 4.6731C4.50332 4.84329 4.45077 5.09832 4.53993 5.32171L9.08543 16.7189C9.17089 16.9331 9.37121 17.0796 9.60129 17.0962C9.83137 17.113 10.0506 16.9967 10.1659 16.7969L11.642 14.2414L15.2243 17.8236C15.3371 17.9366 15.4903 18 15.65 18C15.8096 18 15.9627 17.9366 16.0756 17.8236L17.8237 16.0755C18.0588 15.8404 18.0588 15.4593 17.8237 15.2242ZM15.65 16.5468L11.9388 12.8356C11.8251 12.7219 11.6717 12.6593 11.5131 12.6593C11.487 12.6593 11.4607 12.661 11.4346 12.6644C11.249 12.6888 11.0853 12.7981 10.9918 12.9602L9.74415 15.1204L6.17723 6.17705L15.1204 9.74415L12.9599 10.9919C12.7978 11.0854 12.6885 11.2491 12.6641 11.4347C12.6397 11.6202 12.7029 11.8065 12.8353 11.9388L16.5466 15.6501L15.65 16.5468Z" fill="#343434"/>
<path d="M2.64253 1.79103C2.40736 1.55612 2.02636 1.55612 1.79107 1.79103C1.55595 2.02619 1.55595 2.40728 1.79107 2.64243L3.1287 3.97996C3.24623 4.09741 3.40036 4.15626 3.55443 4.15626C3.70845 4.15626 3.86246 4.09741 3.98011 3.97996C4.21516 3.74486 4.21516 3.36371 3.98011 3.12862L2.64253 1.79103Z" fill="#343434"/>
<path d="M3.09579 5.95245C3.09579 5.62002 2.82619 5.35057 2.49374 5.35057H0.602054C0.26966 5.35057 0 5.61996 0 5.95245C0 6.28481 0.2696 6.55439 0.602054 6.55439H2.49374C2.82619 6.55433 3.09579 6.28481 3.09579 5.95245Z" fill="#343434"/>
<path d="M2.85177 7.81035L1.51402 9.14798C1.27884 9.38295 1.27884 9.7641 1.51402 9.9992C1.63154 10.1167 1.78549 10.1755 1.93969 10.1755C2.0937 10.1755 2.24772 10.1167 2.36524 9.9992L3.70306 8.66162C3.93817 8.42659 3.93817 8.04538 3.70306 7.81035C3.46807 7.57531 3.08695 7.57531 2.85177 7.81035Z" fill="#343434"/>
<path d="M5.95259 3.09565C6.28499 3.09565 6.55459 2.82607 6.55459 2.49365V0.601942C6.55459 0.269577 6.28505 0 5.95259 0C5.62014 0 5.35066 0.269516 5.35066 0.601942V2.49371C5.35066 2.82607 5.62008 3.09565 5.95259 3.09565Z" fill="#343434"/>
<path d="M8.23588 3.87911C8.39008 3.87911 8.54409 3.82044 8.66162 3.70287L9.99919 2.36535C10.2344 2.13025 10.2344 1.7491 9.99919 1.51407C9.76414 1.27898 9.38283 1.27898 9.1479 1.51407L7.81027 2.85159C7.57516 3.08662 7.57516 3.46784 7.81027 3.70287C7.9278 3.82044 8.08187 3.87911 8.23588 3.87911Z" fill="#343434"/>
</svg>
