<svg width="13" height="13" viewBox="0 0 13 13" fill="none" xmlns="http://www.w3.org/2000/svg">
<path fill-rule="evenodd" clip-rule="evenodd" d="M8.96143 1.1499C8.4786 1.1499 8.01554 1.33176 7.67413 1.65548L2.1014 6.93929C1.53242 7.47877 1.21278 8.21047 1.21278 8.97341C1.21278 9.73635 1.53242 10.4681 2.1014 11.0075C2.67038 11.547 3.44209 11.8501 4.24675 11.8501C5.05141 11.8501 5.82312 11.547 6.3921 11.0075L11.9648 5.72372C12.2016 5.49919 12.5856 5.49919 12.8224 5.72372C13.0592 5.94826 13.0592 6.31228 12.8224 6.53681L7.24966 11.8206C6.45324 12.5757 5.37306 13 4.24675 13C3.12044 13 2.04025 12.5757 1.24383 11.8206C0.447412 11.0655 0 10.0413 0 8.97341C0 7.90549 0.447412 6.88133 1.24383 6.1262L6.81656 0.84239C7.38541 0.303028 8.15695 0 8.96143 0C9.76591 0 10.5374 0.303028 11.1063 0.84239C11.6752 1.38175 11.9947 2.11328 11.9947 2.87606C11.9947 3.63883 11.6752 4.37036 11.1063 4.90972L5.5275 10.1935C5.18621 10.5171 4.72333 10.6989 4.24068 10.6989C3.75803 10.6989 3.29514 10.5171 2.95386 10.1935C2.61257 9.86994 2.42084 9.43104 2.42084 8.97341C2.42084 8.51578 2.61257 8.07688 2.95386 7.75329L8.10236 2.87746C8.33931 2.65306 8.72326 2.65329 8.95993 2.87795C9.1966 3.10262 9.19638 3.46664 8.95943 3.69104L3.81142 8.56641C3.69774 8.67433 3.63362 8.82087 3.63362 8.97341C3.63362 9.12607 3.69758 9.27246 3.81142 9.38041C3.92527 9.48835 4.07968 9.54899 4.24068 9.54899C4.40168 9.54899 4.55611 9.48835 4.66995 9.38041L10.2487 4.0966C10.59 3.77291 10.782 3.33375 10.782 2.87606C10.782 2.41826 10.5901 1.97919 10.2487 1.65548C9.90732 1.33176 9.44426 1.1499 8.96143 1.1499Z" fill="white"/>
</svg>
