<svg width="15" height="15" viewBox="0 0 15 15" fill="none" xmlns="http://www.w3.org/2000/svg">
<path d="M11.1637 10.4785C10.9745 10.2893 10.6677 10.2893 10.4785 10.4785C10.2893 10.6677 10.2893 10.9745 10.4785 11.1637L11.1637 10.4785ZM13.2541 13.9392C13.4433 14.1284 13.75 14.1284 13.9392 13.9392C14.1284 13.75 14.1284 13.4433 13.9392 13.2541L13.2541 13.9392ZM12.0447 6.76457C12.0447 9.68068 9.68068 12.0447 6.76457 12.0447V13.0136C10.2158 13.0136 13.0136 10.2158 13.0136 6.76457H12.0447ZM6.76457 12.0447C3.84846 12.0447 1.48449 9.68068 1.48449 6.76457H0.515513C0.515513 10.2158 3.31331 13.0136 6.76457 13.0136V12.0447ZM1.48449 6.76457C1.48449 3.84846 3.84846 1.48449 6.76457 1.48449V0.515513C3.31331 0.515513 0.515513 3.31331 0.515513 6.76457H1.48449ZM6.76457 1.48449C9.68068 1.48449 12.0447 3.84846 12.0447 6.76457H13.0136C13.0136 3.31331 10.2158 0.515513 6.76457 0.515513V1.48449ZM10.4785 11.1637L13.2541 13.9392L13.9392 13.2541L11.1637 10.4785L10.4785 11.1637Z" fill="white"/>
</svg>
