<svg width="14" height="12" viewBox="0 0 14 12" fill="none" xmlns="http://www.w3.org/2000/svg">
<path fill-rule="evenodd" clip-rule="evenodd" d="M1.90913 1.33333C1.56059 1.33333 1.27277 1.63486 1.27277 2V10C1.27277 10.3651 1.56059 10.6667 1.90913 10.6667H12.0909C12.4394 10.6667 12.7272 10.3651 12.7272 10V2C12.7272 1.63486 12.4394 1.33333 12.0909 1.33333H1.90913ZM5.46587e-05 2C5.46587e-05 0.898477 0.857685 0 1.90913 0H12.0909C13.1423 0 13.9999 0.898477 13.9999 2V10C13.9999 11.1015 13.1423 12 12.0909 12H1.90913C0.857685 12 5.46587e-05 11.1015 5.46587e-05 10V2Z" fill="white"/>
<path fill-rule="evenodd" clip-rule="evenodd" d="M0.115088 1.61769C0.316632 1.31606 0.713421 1.2427 1.00134 1.45385L7 5.8529L12.9987 1.45385C13.2866 1.2427 13.6834 1.31606 13.8849 1.61769C14.0865 1.91932 14.0164 2.33501 13.7285 2.54615L7.36493 7.21282C7.14582 7.3735 6.85418 7.3735 6.63507 7.21282L0.271486 2.54615C-0.0164345 2.33501 -0.086456 1.91932 0.115088 1.61769Z" fill="white"/>
</svg>
